<?xml version="1.0" encoding="utf-8"?>
<!-- Generator: Adobe Illustrator 17.0.0, SVG Export Plug-In . SVG Version: 6.00 Build 0)  -->
<!DOCTYPE svg PUBLIC "-//W3C//DTD SVG 1.1//EN" "http://www.w3.org/Graphics/SVG/1.1/DTD/svg11.dtd">
<svg version="1.1" id="Layer_1" xmlns="http://www.w3.org/2000/svg" xmlns:xlink="http://www.w3.org/1999/xlink" x="0px" y="0px"
	 width="60px" height="40px" viewBox="0 0 60 40" enable-background="new 0 0 60 40" xml:space="preserve">
<path id="layer1" transform="translate(-282.32053,-396.30734)" fill="#2D4150" d="
	M328.317,406.384c-0.88,1.317-1.992,2.473-3.275,3.398c0.013,0.281,0.02,0.564,0.02,0.849c0,8.674-6.602,18.676-18.675,18.676
	c-3.707,0-7.156-1.087-10.061-2.949c0.514,0.06,1.036,0.092,1.565,0.092c3.075,0,5.905-1.05,8.152-2.81
	c-2.872-0.054-5.297-1.951-6.132-4.559c0.4,0.077,0.812,0.117,1.234,0.117c0.6,0,1.179-0.08,1.73-0.229
	c-3.003-0.604-5.266-3.256-5.266-6.437c0-0.027,0-0.056,0.001-0.082c0.885,0.491,1.897,0.786,2.973,0.82
	c-1.761-1.177-2.919-3.186-2.919-5.463c0-1.203,0.323-2.331,0.889-3.3c3.237,3.971,8.073,6.584,13.528,6.858
	c-0.112-0.482-0.17-0.983-0.17-1.496c0-3.625,2.938-6.564,6.564-6.564c1.887,0,3.594,0.797,4.79,2.072
	c1.496-0.294,2.9-0.84,4.168-1.593c-0.489,1.533-1.531,2.819-2.886,3.632C325.875,407.259,327.14,406.907,328.317,406.384
	L328.317,406.384z"/>
</svg>
